<svg xmlns="http://www.w3.org/2000/svg" id="canvas" width="860" height="585" viewBox="2100 2100 860 585" style="position:fixed;overflow:hidden;top:0px;left:0px;width:100%;height:100%;pointer-events:all;user-select:none;-webkit-user-select:none;-moz-user-select:none;font-family:Inter, arial, sans-serif;cursor:default;touch-action:none;outline:none"><defs><marker id="arrowhead" refX="1" refY="3" orient="auto" markerWidth="8" markerHeight="8"><path d="M2.91922181,1.64495663 L4.49787879,4.07365967 C4.64837316,4.30518948 4.58268096,4.61488128 4.35115115,4.76537565 C4.27004602,4.81809399 4.17538993,4.84615385 4.07865698,4.84615385 L0.921343022,4.84615385 C0.645200647,4.84615385 0.421343022,4.62229622 0.421343022,4.34615385 C0.421343022,4.24942089 0.44940288,4.1547648 0.502121214,4.07365967 L2.08077819,1.64495663 C2.23127257,1.41342682 2.54096436,1.34773462 2.77249418,1.498229 C2.83112579,1.53633954 2.88111126,1.58632502 2.91922181,1.64495663 Z" fill="#9babcf" transform="translate(2.500000, 2.923077) rotate(90.000000) translate(-2.500000, -2.923077)"></path></marker><marker id="arrowhead-selected" refX="1" refY="3" orient="auto" markerWidth="10" markerHeight="10"><path d="M2.91922181,1.64495663 L4.49787879,4.07365967 C4.64837316,4.30518948 4.58268096,4.61488128 4.35115115,4.76537565 C4.27004602,4.81809399 4.17538993,4.84615385 4.07865698,4.84615385 L0.921343022,4.84615385 C0.645200647,4.84615385 0.421343022,4.62229622 0.421343022,4.34615385 C0.421343022,4.24942089 0.44940288,4.1547648 0.502121214,4.07365967 L2.08077819,1.64495663 C2.23127257,1.41342682 2.54096436,1.34773462 2.77249418,1.498229 C2.83112579,1.53633954 2.88111126,1.58632502 2.91922181,1.64495663 Z" fill="#3366FF" transform="translate(2.500000, 2.923077) rotate(90.000000) translate(-2.500000, -2.923077) "></path></marker><pattern id="error-pattern" patternUnits="userSpaceOnUse" patternTransform="rotate(45 0 0)" width="5" height="5"><line x1="0" y1="0" x2="0" y2="5" stroke="#db4324" stroke-width="1"></line></pattern></defs><g id="wrapper" transform="translate(0, 0) scale(1)"><g transform="translate(2369, 2205)"><rect width="377" height="320" fill="#fcfcfc" stroke="#dadada" stroke-width="2px" stroke-opacity="1" rx="10" ry="10" mask=""></rect><g><rect width="16" height="16" x="-8" y="-8" fill="transparent"></rect><rect width="16" height="16" x="377" y="-8" fill="transparent"></rect><rect width="16" height="16" x="-8" y="322" fill="transparent"></rect><rect width="16" height="16" x="377" y="322" fill="transparent"></rect><rect width="16" height="314" x="-8" y="8" fill="transparent"></rect><rect width="16" height="314" x="377" y="8" fill="transparent"></rect><rect width="369" height="16" x="8" y="-8" fill="transparent"></rect><rect width="369" height="16" x="8" y="322" fill="transparent"></rect></g></g><g transform="translate(2479, 2226)"><mask id="ctr_I7uBxwOsEWhpLgH7FuP72-mask"><rect x="-3" y="-3" width="226" height="205" fill="white"></rect><rect x="55.89062499999999" y="-3" width="108.21875000000001" height="6" fill="black"></rect></mask><rect width="212" height="189" fill="#fefbfa" stroke="#f1d4c7" stroke-width="2px" stroke-opacity="1" rx="10" ry="10" mask="url(#ctr_I7uBxwOsEWhpLgH7FuP72-mask)"></rect><g><rect width="16" height="16" x="-8" y="-8" fill="transparent"></rect><rect width="16" height="16" x="212" y="-8" fill="transparent"></rect><rect width="16" height="16" x="-8" y="191" fill="transparent"></rect><rect width="16" height="16" x="212" y="191" fill="transparent"></rect><rect width="16" height="183" x="-8" y="8" fill="transparent"></rect><rect width="16" height="183" x="212" y="8" fill="transparent"></rect><rect width="204" height="16" x="8" y="-8" fill="transparent"></rect><rect width="204" height="16" x="8" y="191" fill="transparent"></rect></g><g><g transform="translate(55.89062499999999, -10)"><svg viewBox="0 0 50 50" width="22" height="22"><svg id="hTGQLzC5GScdAXdmz2_kA" xmlns="http://www.w3.org/2000/svg" viewBox="4.33 4.2 41.6 41.6" width="50" height="50"><path fill="#C8511B" fill-rule="evenodd" d="M25.128 43.23c-10.025 0-18.182-8.156-18.182-18.181 0-10.026 8.157-18.182 18.182-18.182 10.026 0 18.182 8.156 18.182 18.182 0 10.025-8.156 18.181-18.182 18.181zm0-38.181c-11.028 0-20 8.971-20 20s8.972 20 20 20 20-8.972 20-20-8.972-20-20-20zm-6.154 30.227h-4.868l5.768-12.083 2.438 5.03-3.338 7.053zm1.712-14.577a.91.91 0 0 0-.818-.513h-.003a.907.907 0 0 0-.817.518l-7.203 15.09a.908.908 0 0 0 .82 1.3h6.885a.911.911 0 0 0 .823-.52l3.769-7.966a.912.912 0 0 0-.004-.786L20.686 20.7zm15.465 14.577h-4.957l-9.01-19.361a.91.91 0 0 0-.825-.525h-3.275l.003-3.75h6.564l8.967 19.359c.15.32.47.527.825.527h1.708v3.75zm.909-5.568h-2.036l-8.968-19.36a.912.912 0 0 0-.825-.527h-8.052a.91.91 0 0 0-.91.908l-.004 5.569a.909.909 0 0 0 .909.91h3.606l9.01 19.36c.15.32.47.526.825.526h6.445c.503 0 .909-.406.909-.91v-5.567a.908.908 0 0 0-.91-.91z" clip-rule="evenodd"></path></svg></svg></g><text x="83.890625" y="4" font-size="12" font-weight="400" fill="black">AWS Lambda</text></g></g><g transform="translate(2365,2200)" width="110" height="110"><g transform="translate(30,30)"><path stroke="none" d="
    M 0, 16.6
    C 0, 2.9299 2.9299, 0 16.6, 0
    L 33.4, 0
    C 47.0701, 0 50, 2.9299 50, 16.6
    L 50, 33.4
    C 50, 47.0701 47.0701, 50 33.4, 50
    L 16.6, 50
    C 2.9299, 50 0, 47.0701 0, 33.4
    L 0, 16.6
  " stroke-width="2" fill="#f3dae5"></path></g><svg viewBox="0 0 50 50" width="35" height="35" x="37.5" y="37.5"><svg id="T-64dqm2yVlLK4qWilgua" xmlns="http://www.w3.org/2000/svg" viewBox="4.76 7.01 41.6 37.29" width="50" height="50"><path fill="#B0084D" fill-rule="evenodd" d="M36.338 30.532c0-2.792-2.287-5.064-5.098-5.064s-5.098 2.272-5.098 5.064c0 2.793 2.287 5.064 5.098 5.064 2.81 0 5.098-2.271 5.098-5.064zm1.436 0c0 3.58-2.931 6.49-6.534 6.49-3.603 0-6.534-2.91-6.534-6.49 0-3.579 2.931-6.49 6.534-6.49 3.603 0 6.534 2.911 6.534 6.49zm6.028 9.783-5.006-4.479a9.314 9.314 0 0 1-1.39 1.544l4.998 4.478c.427.382 1.09.347 1.476-.077a1.038 1.038 0 0 0-.078-1.466zM31.24 38.307c4.316 0 7.827-3.488 7.827-7.775 0-4.287-3.511-7.774-7.827-7.774s-7.827 3.487-7.827 7.774 3.511 7.775 7.827 7.775zm13.707 4.429a2.488 2.488 0 0 1-1.846.812 2.483 2.483 0 0 1-1.657-.63l-5.198-4.656a9.239 9.239 0 0 1-5.006 1.471c-5.108 0-9.263-4.127-9.263-9.2 0-5.074 4.155-9.202 9.263-9.202s9.263 4.128 9.263 9.201a9.072 9.072 0 0 1-.96 4.053l5.22 4.671a2.46 2.46 0 0 1 .184 3.48zM12.21 18.115c0 .37.023.74.067 1.097a.71.71 0 0 1-.588.79c-1.766.453-4.672 1.824-4.672 5.936 0 3.106 1.724 4.82 3.17 5.711.495.31 1.08.474 1.696.48l8.659.009-.002 1.426-8.665-.008a4.692 4.692 0 0 1-2.448-.697c-1.434-.884-3.846-2.96-3.846-6.92 0-4.775 3.286-6.54 5.214-7.163a10.128 10.128 0 0 1-.021-.662c0-3.9 2.663-7.944 6.194-9.407 4.13-1.72 8.506-.867 11.703 2.278.991.974 1.806 2.157 2.431 3.526a4.65 4.65 0 0 1 2.967-1.073c2.145 0 4.56 1.617 4.99 5.154 2.008.46 6.251 2.067 6.251 7.401 0 2.13-.672 3.889-1.998 5.228l-1.024-1c1.052-1.063 1.586-2.485 1.586-4.228 0-4.665-3.932-5.826-5.624-6.107a.716.716 0 0 1-.472-.3.707.707 0 0 1-.116-.527c-.234-2.896-1.966-4.194-3.593-4.194-1.026 0-1.988.496-2.64 1.362a.719.719 0 0 1-1.25-.184c-.588-1.619-1.435-2.98-2.518-4.044-2.77-2.725-6.56-3.464-10.14-1.976-2.978 1.234-5.311 4.788-5.311 8.092z" clip-rule="evenodd"></path></svg></svg><g transform="translate(55, 89)"><text x="0" y="0" text-anchor="middle" style="fill:#101840;font-size:10px" dominant-baseline="middle" alignment-baseline="middle"><tspan>Amazon CloudWatch</tspan></text></g><rect width="60" height="60" x="25" y="25" fill="transparent"></rect><rect width="40" height="40" x="35" y="35" fill="transparent"></rect></g><g transform="translate(2750,2200)" width="110" height="110"><g transform="translate(30,30)"><path stroke="none" d="
    M 0, 16.6
    C 0, 2.9299 2.9299, 0 16.6, 0
    L 33.4, 0
    C 47.0701, 0 50, 2.9299 50, 16.6
    L 50, 33.4
    C 50, 47.0701 47.0701, 50 33.4, 50
    L 16.6, 50
    C 2.9299, 50 0, 47.0701 0, 33.4
    L 0, 16.6
  " stroke-width="2" fill="#d7e4d5"></path></g><svg viewBox="0 0 50 50" width="35" height="35" x="37.5" y="37.5"><svg id="xE--H-UH6vduBGXPShgVx" xmlns="http://www.w3.org/2000/svg" viewBox="5.39 4.64 40.03 41.53" width="50" height="50"><path fill="#1B660F" fill-rule="evenodd" d="m40.372 27.505.274-1.931c2.53 1.514 2.562 2.14 2.561 2.157-.004.004-.435.364-2.835-.226zm-1.388-.386c-4.372-1.323-10.46-4.116-12.923-5.28l.003-.03c0-.946-.77-1.716-1.717-1.716-.946 0-1.716.77-1.716 1.717 0 .946.77 1.716 1.716 1.716.415 0 .793-.155 1.09-.401 2.899 1.372 8.94 4.124 13.343 5.424L37.04 40.84a.682.682 0 0 0-.007.1c0 1.083-4.791 3.07-12.619 3.07-7.91 0-12.752-1.987-12.752-3.07a.745.745 0 0 0-.006-.096L8.016 14.266c3.15 2.168 9.923 3.315 16.401 3.315 6.469 0 13.231-1.142 16.387-3.304l-1.82 12.842zM7.632 11.494c.051-.94 5.453-4.627 16.785-4.627s16.734 3.686 16.786 4.627v.32c-.621 2.109-7.621 4.339-16.786 4.339-9.18 0-16.183-2.237-16.785-4.348v-.31zm35 .016c0-2.475-7.096-6.072-18.215-6.072S6.203 9.035 6.203 11.51l.067.539 3.963 28.945c.095 3.237 8.728 4.444 14.18 4.444 6.766 0 13.954-1.555 14.047-4.442l1.711-12.069c.952.228 1.736.344 2.365.344.845 0 1.416-.206 1.763-.619.284-.339.393-.749.311-1.185-.185-.988-1.358-2.054-3.748-3.418l1.697-11.973.073-.566z" clip-rule="evenodd"></path></svg></svg><g transform="translate(55, 89)"><text x="0" y="0" text-anchor="middle" style="fill:#101840;font-size:10px" dominant-baseline="middle" alignment-baseline="middle"><tspan>Amazon S3</tspan></text></g><rect width="60" height="60" x="25" y="25" fill="transparent"></rect><rect width="40" height="40" x="35" y="35" fill="transparent"></rect></g><g transform="translate(2530,2310)" width="110" height="110"><g transform="translate(30,30)"><path stroke="none" d="
    M 0, 16.6
    C 0, 2.9299 2.9299, 0 16.6, 0
    L 33.4, 0
    C 47.0701, 0 50, 2.9299 50, 16.6
    L 50, 33.4
    C 50, 47.0701 47.0701, 50 33.4, 50
    L 16.6, 50
    C 2.9299, 50 0, 47.0701 0, 33.4
    L 0, 16.6
  " stroke-width="2" fill="#d0e3f3"></path></g><svg viewBox="0 0 50 50" width="35" height="35" x="37.5" y="37.5"><svg id="rESh4RPlBndodl9vAig4u" xmlns="http://www.w3.org/2000/svg" viewBox="4.39 4.76 41.16 41.6" width="50" height="50"><g fill="none" fill-rule="evenodd"><path fill="url(#B8fSdnUcQjqDZ-vKMYo5u)" d="M24.765 5.577c-1.632.008-3.19.147-4.56.39-4.039.713-4.772 2.206-4.772 4.96v3.637h9.543v1.212H11.852c-2.774 0-5.202 1.667-5.962 4.838-.876 3.635-.915 5.903 0 9.699.679 2.825 2.299 4.838 5.072 4.838h3.281v-4.36c0-3.15 2.725-5.928 5.961-5.928h9.532c2.653 0 4.771-2.185 4.771-4.85v-9.086c0-2.586-2.181-4.529-4.771-4.96a29.763 29.763 0 0 0-4.972-.39zm-5.161 2.925c.986 0 1.79.819 1.79 1.824a1.803 1.803 0 0 1-1.79 1.813c-.99 0-1.79-.81-1.79-1.813 0-1.005.8-1.824 1.79-1.824z"></path><path fill="url(#REAQDvOn8C1mefEQf6IW-)" d="M35.697 15.776v4.238c0 3.285-2.785 6.05-5.961 6.05h-9.532c-2.61 0-4.771 2.235-4.771 4.85V40c0 2.586 2.249 4.107 4.771 4.85 3.021.888 5.918 1.048 9.532 0 2.402-.696 4.771-2.096 4.771-4.85v-3.637h-9.531v-1.212h14.303c2.773 0 3.807-1.935 4.771-4.838.996-2.99.954-5.864 0-9.699-.685-2.76-1.994-4.838-4.771-4.838h-3.582zm-5.36 23.012c.989 0 1.79.81 1.79 1.813 0 1.006-.801 1.824-1.79 1.824-.986 0-1.791-.818-1.791-1.824 0-1.003.805-1.813 1.79-1.813z"></path><defs><linearGradient id="B8fSdnUcQjqDZ-vKMYo5u" x1="5.219" x2="27.223" y1="5.577" y2="24.328" gradientUnits="userSpaceOnUse"><stop stop-color="#5A9FD4"></stop><stop offset="1" stop-color="#306998"></stop></linearGradient><linearGradient id="REAQDvOn8C1mefEQf6IW-" x1="30.107" x2="22.213" y1="40.295" y2="29.233" gradientUnits="userSpaceOnUse"><stop stop-color="#FFD43B"></stop><stop offset="1" stop-color="#FFE873"></stop></linearGradient></defs></g></svg></svg><g transform="translate(55, 89)"><text x="0" y="0" text-anchor="middle" style="fill:#101840;font-size:10px" dominant-baseline="middle" alignment-baseline="middle"><tspan>Python</tspan></text></g><rect width="60" height="60" x="25" y="25" fill="transparent"></rect><rect width="40" height="40" x="35" y="35" fill="transparent"></rect></g><g transform="translate(2200,2255)" width="110" height="110"><g transform="translate(30,30)"><path stroke="none" d="
    M 0, 16.6
    C 0, 2.9299 2.9299, 0 16.6, 0
    L 33.4, 0
    C 47.0701, 0 50, 2.9299 50, 16.6
    L 50, 33.4
    C 50, 47.0701 47.0701, 50 33.4, 50
    L 16.6, 50
    C 2.9299, 50 0, 47.0701 0, 33.4
    L 0, 16.6
  " stroke-width="2" fill="#dfe1e3"></path></g><svg viewBox="0 0 50 50" width="35" height="35" x="37.5" y="37.5"><svg id="LZt7tZZRNjZ7urQe_rTNC" xmlns="http://www.w3.org/2000/svg" viewBox="4.33 12.2 41.6 26.66" width="50" height="50"><path fill="#232F3D" fill-rule="evenodd" d="M34.765 31.023 31.5 34.286V23.727h-1.817v10.459l-3.126-3.178-1.296 1.275 4.72 4.796c.171.173.403.271.644.272h.004a.91.91 0 0 0 .642-.266l4.778-4.777-1.284-1.285zm-11.12-1.876 1.284-1.285-4.777-4.777a.904.904 0 0 0-.643-.266h-.003a.907.907 0 0 0-.644.271l-4.721 4.796 1.295 1.273 3.127-3.175v12.094h1.817V25.882l3.264 3.265zm-1.833 8.947 6.42.006.002-1.817-6.42-.006-.002 1.817zm23.343-7.67c0 2.26-.685 4.087-2.038 5.429-2.227 2.212-5.457 2.258-5.712 2.258h-.01l-4.328-.005.002-1.817 4.332.004c.036 0 2.723-.019 4.446-1.739.99-.988 1.49-2.377 1.49-4.13 0-1.074-.294-2.681-2.843-4.243a8.806 8.806 0 0 0-3.07-1.168.908.908 0 0 1-.756-1.004c-.161-1.904-1.053-3.236-2.456-3.66-1.213-.368-2.51.061-3.311 1.093a.896.896 0 0 1-.855.342.906.906 0 0 1-.714-.583c-.562-1.512-1.373-2.782-2.413-3.776-1.28-1.224-4.797-3.86-9.767-1.852-2.849 1.151-5.082 4.456-5.082 7.525 0 .343.022.686.065 1.02a.91.91 0 0 1-.743 1.01c-1.676.42-4.42 1.686-4.42 5.449 0 2.857 1.635 4.437 3.006 5.26.468.28 1.009.43 1.563.43l5.59.005-.002 1.818-5.589-.006a4.862 4.862 0 0 1-2.498-.69c-1.451-.87-3.887-2.913-3.887-6.817 0-3.375 1.893-5.948 5.109-7.013a10.003 10.003 0 0 1-.011-.465c0-3.82 2.674-7.78 6.219-9.21 4.13-1.67 8.505-.835 11.704 2.224a11.275 11.275 0 0 1 2.325 3.212 4.816 4.816 0 0 1 4.238-.716c1.99.604 3.337 2.36 3.683 4.756 1.03.256 2.099.701 3.022 1.267 2.497 1.53 3.711 3.425 3.711 5.792z" clip-rule="evenodd"></path></svg></svg><g transform="translate(55, 89)"><text x="0" y="0" text-anchor="middle" style="fill:#101840;font-size:10px" dominant-baseline="middle" alignment-baseline="middle"><tspan>News Website</tspan></text></g><rect width="60" height="60" x="25" y="25" fill="transparent"></rect><rect width="40" height="40" x="35" y="35" fill="transparent"></rect></g><g transform="translate(2530,2200)" width="110" height="110"><g transform="translate(27,28)"><path stroke="none" d="
    M 0, 16.6
    C 0, 2.9299 2.9299, 0 16.6, 0
    L 33.4, 0
    C 47.0701, 0 50, 2.9299 50, 16.6
    L 50, 33.4
    C 50, 47.0701 47.0701, 50 33.4, 50
    L 16.6, 50
    C 2.9299, 50 0, 47.0701 0, 33.4
    L 0, 16.6
  " stroke-width="2" fill="#f4dcd1"></path><path transform="translate(5, 5)" d="m 0 44 c 3 3 7 4 15 4 h 16 c 14 0 17 -3 17 -17 v -16 c 0 -8 -1 -12 -4 -15 c 1 3 2 7 2 13 v 16 c 0 14 -3 17 -17 17 h -16 c -6 0 -10 -1 -13 -2 z" fill="#f4dcd1"></path><path transform="translate(8, 8)" d="m 0 44 c 3 3 7 4 15 4 h 16 c 14 0 17 -3 17 -17 v -16 c 0 -8 -1 -12 -4 -15 c 1 3 2 7 2 13 v 16 c 0 14 -3 17 -17 17 h -16 c -6 0 -10 -1 -13 -2 z" fill="#f4dcd1"></path></g><svg viewBox="0 0 50 50" width="35" height="35" x="34.5" y="35.5"><svg id="Dr9vB3Pbswzt9ldQ6kxR4" xmlns="http://www.w3.org/2000/svg" viewBox="4.33 4.2 41.6 41.6" width="50" height="50"><path fill="#C8511B" fill-rule="evenodd" d="M25.128 43.23c-10.025 0-18.182-8.156-18.182-18.181 0-10.026 8.157-18.182 18.182-18.182 10.026 0 18.182 8.156 18.182 18.182 0 10.025-8.156 18.181-18.182 18.181zm0-38.181c-11.028 0-20 8.971-20 20s8.972 20 20 20 20-8.972 20-20-8.972-20-20-20zm-6.154 30.227h-4.868l5.768-12.083 2.438 5.03-3.338 7.053zm1.712-14.577a.91.91 0 0 0-.818-.513h-.003a.907.907 0 0 0-.817.518l-7.203 15.09a.908.908 0 0 0 .82 1.3h6.885a.911.911 0 0 0 .823-.52l3.769-7.966a.912.912 0 0 0-.004-.786L20.686 20.7zm15.465 14.577h-4.957l-9.01-19.361a.91.91 0 0 0-.825-.525h-3.275l.003-3.75h6.564l8.967 19.359c.15.32.47.527.825.527h1.708v3.75zm.909-5.568h-2.036l-8.968-19.36a.912.912 0 0 0-.825-.527h-8.052a.91.91 0 0 0-.91.908l-.004 5.569a.909.909 0 0 0 .909.91h3.606l9.01 19.36c.15.32.47.526.825.526h6.445c.503 0 .909-.406.909-.91v-5.567a.908.908 0 0 0-.91-.91z" clip-rule="evenodd"></path></svg></svg><g transform="translate(55, 91)"><text x="0" y="0" text-anchor="middle" style="fill:#101840;font-size:10px" dominant-baseline="middle" alignment-baseline="middle"><tspan>AWS Lambda</tspan></text></g><rect width="66" height="64" x="22" y="23" fill="transparent"></rect><rect width="46" height="44" x="32" y="33" fill="transparent"></rect></g><g transform="translate(2475,2475)" width="110" height="110"><g transform="translate(30,30)"><path stroke="none" d="
    M 0, 16.6
    C 0, 2.9299 2.9299, 0 16.6, 0
    L 33.4, 0
    C 47.0701, 0 50, 2.9299 50, 16.6
    L 50, 33.4
    C 50, 47.0701 47.0701, 50 33.4, 50
    L 16.6, 50
    C 2.9299, 50 0, 47.0701 0, 33.4
    L 0, 16.6
  " stroke-width="2" fill="#e0defa"></path></g><svg viewBox="0 0 50 50" width="35" height="35" x="37.5" y="37.5"><svg id="YZqrhtxDXU03vmsv0b6WU" xmlns="http://www.w3.org/2000/svg" viewBox="6.2 4.2 36.78 41.53" width="50" height="50"><g fill="none" fill-rule="evenodd" clip-rule="evenodd"><path fill="#5C4EE5" d="M30.066 45V32.376l-10.934-6.314v12.624L30.066 45zm0-14.003-10.934-6.315V12.053l10.934 6.314v12.63z"></path><path fill="#4040B2" d="M42.21 24.677V12.048l-10.94 6.314v12.63l10.94-6.315z"></path><path fill="#5C4EE5" d="M17.934 23.943V11.314L7 5v12.629l10.934 6.314z"></path></g></svg></svg><g transform="translate(55, 89)"><text x="0" y="0" text-anchor="middle" style="fill:#101840;font-size:10px" dominant-baseline="middle" alignment-baseline="middle"><tspan>HashiCorp Terraform</tspan></text></g><rect width="60" height="60" x="25" y="25" fill="transparent"></rect><rect width="40" height="40" x="35" y="35" fill="transparent"></rect></g><marker id="arrowhead_arr_3YyRgoOzU9ouML9PhcWIx" refX="1" refY="3" orient="auto" markerWidth="8" markerHeight="8"><path d="M2.91922181,1.64495663 L4.49787879,4.07365967 C4.64837316,4.30518948 4.58268096,4.61488128 4.35115115,4.76537565 C4.27004602,4.81809399 4.17538993,4.84615385 4.07865698,4.84615385 L0.921343022,4.84615385 C0.645200647,4.84615385 0.421343022,4.62229622 0.421343022,4.34615385 C0.421343022,4.24942089 0.44940288,4.1547648 0.502121214,4.07365967 L2.08077819,1.64495663 C2.23127257,1.41342682 2.54096436,1.34773462 2.77249418,1.498229 C2.83112579,1.53633954 2.88111126,1.58632502 2.91922181,1.64495663 Z" fill="#afb4b7" transform="translate(2.500000, 2.923077) rotate(90.000000) translate(-2.500000, -2.923077)"></path></marker><path style="stroke-width:2px;stroke:#afb4b7" stroke-linecap="round" marker-end="url(#arrowhead_arr_3YyRgoOzU9ouML9PhcWIx)" d="M 2255 2352 L 2255 2361 C 2255 2363 2257 2365 2259 2365 L 2362.7625 2365 M 2443.2375 2365 L 2551 2365  " fill="none" pointer-events="stroke" stroke-linejoin="round"></path><path style="stroke-width:4px;stroke:transparent" d="M 2255 2352 L 2255 2361 C 2255 2363 2257 2365 2259 2365 L 2362.7625 2365 M 2443.2375 2365 L 2551 2365  " fill="none" pointer-events="stroke"></path><path id="arr_3YyRgoOzU9ouML9PhcWIx-label" d="M 2362.7625 2365 L 2443.2375 2365  "></path><text font-size="8" dominant-baseline="middle"><textPath href="#arr_3YyRgoOzU9ouML9PhcWIx-label" alignment-baseline="middle" dominant-baseline="middle" startOffset="3">web scraping script</textPath></text><marker id="arrowhead_arr_YRQIyWV8lksjxDJyny8yh" refX="1" refY="3" orient="auto" markerWidth="8" markerHeight="8"><path d="M2.91922181,1.64495663 L4.49787879,4.07365967 C4.64837316,4.30518948 4.58268096,4.61488128 4.35115115,4.76537565 C4.27004602,4.81809399 4.17538993,4.84615385 4.07865698,4.84615385 L0.921343022,4.84615385 C0.645200647,4.84615385 0.421343022,4.62229622 0.421343022,4.34615385 C0.421343022,4.24942089 0.44940288,4.1547648 0.502121214,4.07365967 L2.08077819,1.64495663 C2.23127257,1.41342682 2.54096436,1.34773462 2.77249418,1.498229 C2.83112579,1.53633954 2.88111126,1.58632502 2.91922181,1.64495663 Z" fill="#afb4b7" transform="translate(2.500000, 2.923077) rotate(90.000000) translate(-2.500000, -2.923077)"></path></marker><path style="stroke-width:2px;stroke:#afb4b7" stroke-linecap="round" marker-end="url(#arrowhead_arr_YRQIyWV8lksjxDJyny8yh)" d="M 2614 2365 L 2665.93125 2365 M 2753.06875 2365 L 2801 2365 C 2803 2365 2805 2363 2805 2361 L 2805 2302  " fill="none" pointer-events="stroke" stroke-linejoin="round"></path><path style="stroke-width:4px;stroke:transparent" d="M 2614 2365 L 2665.93125 2365 M 2753.06875 2365 L 2801 2365 C 2803 2365 2805 2363 2805 2361 L 2805 2302  " fill="none" pointer-events="stroke"></path><path id="arr_YRQIyWV8lksjxDJyny8yh-label" d="M 2665.93125 2365 L 2753.06875 2365  "></path><text font-size="8" dominant-baseline="middle"><textPath href="#arr_YRQIyWV8lksjxDJyny8yh-label" alignment-baseline="middle" dominant-baseline="middle" startOffset="3">Writes csv files to s3 </textPath></text><marker id="arrowhead_arr_bG464jsPEHNc3kxpvrD12" refX="1" refY="3" orient="auto" markerWidth="8" markerHeight="8"><path d="M2.91922181,1.64495663 L4.49787879,4.07365967 C4.64837316,4.30518948 4.58268096,4.61488128 4.35115115,4.76537565 C4.27004602,4.81809399 4.17538993,4.84615385 4.07865698,4.84615385 L0.921343022,4.84615385 C0.645200647,4.84615385 0.421343022,4.62229622 0.421343022,4.34615385 C0.421343022,4.24942089 0.44940288,4.1547648 0.502121214,4.07365967 L2.08077819,1.64495663 C2.23127257,1.41342682 2.54096436,1.34773462 2.77249418,1.498229 C2.83112579,1.53633954 2.88111126,1.58632502 2.91922181,1.64495663 Z" fill="#afb4b7" transform="translate(2.500000, 2.923077) rotate(90.000000) translate(-2.500000, -2.923077)"></path></marker><path style="stroke-width:2px;stroke:#afb4b7" stroke-linecap="round" marker-end="url(#arrowhead_arr_bG464jsPEHNc3kxpvrD12)" d="M 2449 2255 L 2470.41875 2255 M 2526.58125 2255 L 2548 2255  " fill="none" pointer-events="stroke" stroke-linejoin="round"></path><path style="stroke-width:4px;stroke:transparent" d="M 2449 2255 L 2470.41875 2255 M 2526.58125 2255 L 2548 2255  " fill="none" pointer-events="stroke"></path><path id="arr_bG464jsPEHNc3kxpvrD12-label" d="M 2470.41875 2255 L 2526.58125 2255  "></path><text font-size="8" dominant-baseline="middle"><textPath href="#arr_bG464jsPEHNc3kxpvrD12-label" alignment-baseline="middle" dominant-baseline="middle" startOffset="3">Daily triggers</textPath></text></g></svg>